<?xml version="1.0" encoding="utf-8"?>
<!-- Generator: Adobe Illustrator 22.0.1, SVG Export Plug-In . SVG Version: 6.00 Build 0)  -->
<svg version="1.1" id="Group_137" xmlns="http://www.w3.org/2000/svg" xmlns:xlink="http://www.w3.org/1999/xlink" x="0px" y="0px"
	 viewBox="0 0 15 15" style="enable-background:new 0 0 15 15;" xml:space="preserve">
<style type="text/css">
	.st0{fill:#FFFFFF;}
</style>
<path id="Path_1269" class="st0" d="M8.8,7.5l5.9-5.9c0.4-0.3,0.4-0.9,0-1.3c0,0,0,0,0,0c-0.3-0.4-0.9-0.4-1.3,0c0,0,0,0,0,0
	L7.5,6.2L1.6,0.3c-0.3-0.4-0.9-0.4-1.3,0c0,0,0,0,0,0c-0.4,0.3-0.4,0.9,0,1.3c0,0,0,0,0,0l5.9,5.9l-5.9,5.9c-0.4,0.3-0.4,0.9,0,1.3
	c0,0,0,0,0,0C0.4,14.9,0.7,15,0.9,15c0.2,0,0.5-0.1,0.7-0.3l5.9-5.9l5.9,5.9c0.3,0.4,0.9,0.4,1.3,0c0,0,0,0,0,0
	c0.4-0.3,0.4-0.9,0-1.3c0,0,0,0,0,0L8.8,7.5z"/>
</svg>
